<?xml version="1.0" standalone="no"?>
<!DOCTYPE svg PUBLIC "-//W3C//DTD SVG 20010904//EN"
 "http://www.w3.org/TR/2001/REC-SVG-20010904/DTD/svg10.dtd">
<svg version="1.0" xmlns="http://www.w3.org/2000/svg"
 width="483.000000pt" height="527.000000pt" viewBox="0 0 483.000000 527.000000"
 preserveAspectRatio="xMidYMid meet">

<g transform="translate(0.000000,527.000000) scale(0.100000,-0.100000)"
fill="#000000" stroke="none">
<path d="M1450 3203 c-70 -6 -149 -42 -157 -72 -4 -15 -2 -26 5 -29 15 -5 16
-102 2 -102 -15 0 -8 -89 8 -95 14 -5 17 -95 2 -95 -5 0 -10 -20 -10 -45 0
-25 5 -45 10 -45 6 0 10 -33 10 -80 0 -110 11 -130 97 -163 101 -40 110 -38
110 23 0 44 -3 51 -22 56 -35 9 -51 99 -20 110 12 5 15 26 15 106 0 54 4 97 9
94 5 -3 11 17 15 44 l7 50 59 0 60 0 1 -42 c1 -24 1 -46 0 -50 0 -5 22 -8 49
-8 l50 0 0 -47 c0 -27 3 -72 6 -100 6 -45 10 -53 28 -53 56 0 66 -10 66 -61
l0 -49 -62 -1 c-35 0 -78 -1 -97 -2 l-34 -2 -1 -52 -1 -53 47 0 47 0 3 -42 3
-43 50 -2 c173 -9 605 12 616 29 5 7 9 30 9 51 0 36 1 37 35 37 19 0 38 -1 43
-2 4 -2 9 44 12 102 l5 105 43 3 42 3 0 45 0 44 -46 0 -45 0 3 53 3 52 45 5
45 5 0 40 c0 47 -8 55 -58 55 l-38 0 3 48 3 47 43 3 42 3 0 44 c0 47 -9 55
-61 55 -19 0 -29 5 -29 15 0 13 -63 15 -512 13 -282 -1 -533 -3 -558 -5z"/>
<path d="M3070 3192 c0 -7 -17 -12 -43 -12 l-43 0 3 -42 c4 -51 5 -52 48 -52
l35 0 0 -53 0 -53 -45 0 c-43 0 -45 -1 -45 -29 0 -50 9 -61 51 -61 l39 0 0
-55 0 -55 -40 0 c-34 0 -41 -4 -46 -24 -11 -47 -2 -61 44 -64 l42 -3 0 -94 0
-94 43 -3 c24 -2 43 -8 43 -15 1 -7 2 -29 3 -50 l1 -36 146 7 c81 4 154 11
164 16 15 8 92 200 215 536 l34 92 -157 71 -157 71 -167 6 c-124 5 -168 4
-168 -4z"/>
<path d="M1134 3083 l-31 -15 40 -94 c22 -52 44 -94 48 -94 4 0 5 8 2 19 -3
10 0 22 6 25 14 9 15 96 1 96 -5 0 -10 18 -10 40 0 44 -7 47 -56 23z"/>
<path d="M1093 2018 c-4 -7 -7 -58 -6 -112 1 -82 4 -102 19 -113 9 -7 20 -10
25 -8 14 9 22 115 11 138 -6 12 -13 39 -17 59 -6 41 -19 55 -32 36z"/>
<path d="M3516 1829 c-14 -4 -27 -5 -30 -2 -2 3 -18 2 -35 -2 -27 -6 -30 -11
-33 -48 -3 -38 -6 -42 -37 -48 -39 -8 -52 -24 -49 -59 3 -22 8 -25 41 -25 l37
0 0 -49 0 -48 98 6 c154 11 152 10 152 62 0 39 3 44 23 44 55 0 64 8 58 53 -6
40 -7 42 -41 42 -31 0 -35 3 -38 30 -2 17 -9 36 -14 43 -11 13 -84 13 -132 1z"/>
<path d="M1427 1784 c-4 -4 -7 -20 -7 -36 0 -15 -4 -28 -9 -28 -10 0 -9 -76 2
-86 4 -4 7 -29 7 -56 0 -41 4 -53 27 -73 31 -26 43 -19 43 28 0 15 5 27 10 27
16 0 12 86 -5 100 -8 7 -15 27 -15 44 0 51 -33 100 -53 80z"/>
<path d="M1997 1733 c-2 -1 -26 -3 -55 -4 -28 -1 -56 -5 -61 -8 -5 -3 -13 -26
-18 -51 -8 -42 -11 -45 -51 -53 -42 -8 -43 -9 -40 -45 3 -36 4 -37 45 -40 l42
-3 3 -47 3 -47 70 2 c150 4 211 13 211 31 0 70 4 82 27 82 56 0 67 10 67 56
l0 44 -49 0 -50 0 -3 43 -3 42 -68 0 c-38 0 -69 -1 -70 -2z"/>
</g>
</svg>
